<?xml version="1.0" standalone="no"?>
<svg xmlns="http://www.w3.org/2000/svg" viewBox="0 0 240.57966336633666 111.21966336633663" width="240.57966336633666" height="111.21966336633663"><rect fill="#0019ff" width="240.57966336633666" height="111.21966336633663" x="0" y="0"></rect><g fill="white" color="white" transform="translate(141.36 12) scale(0.8721967)"><svg width="100.0" height="100.0" x="0.0" y="0.0" viewBox="0 0 100 100"><g><path fill="none" d="M20.909,71.322c4.202,1.007,8.107-0.89,12.074-2.343c3.664-1.342,7.506-2.005,11.33-1.908   c3.824-0.097,7.666,0.566,11.33,1.908c3.967,1.452,7.872,3.35,12.074,2.343c3.362-0.806,5.155-3.885,6.295-7.426   c0.105-0.61,0.2-1.225,0.279-1.844c0.006-0.048,0.017-0.094,0.031-0.139c0-0.015-0.001-0.03-0.001-0.045   c-0.001-0.034,0.001-0.068,0.005-0.102l0.059-0.487c0.004-0.032,0.01-0.064,0.018-0.095c0.024-0.094,0.068-0.189,0.102-0.284   c-0.686,0.45-1.39,0.871-2.113,1.25c0.39,1.928-1.406,4.128-2.786,5.194c-1.803,1.393-4.151,1.745-6.266,0.949   c-0.047-0.018-0.039-0.083,0.012-0.087c2.168-0.184,4.573-0.79,6.128-2.425c0.65-0.683,1.282-1.48,1.708-2.329   c0.157-0.313,0.271-0.611,0.399-0.897c-1.03,0.493-2.081,0.913-3.134,1.253c-3.519,1.137-7.717,1.304-10.753-1.127   c-3.356-2.687-4.455-6.672-5.368-10.66c-0.035-0.155,0.188-0.214,0.239-0.065c1.288,3.74,2.783,8.426,6.524,10.492   c3.947,2.18,8.524,0.984,12.278-1.01c3.174-1.686,6.348-3.861,8.334-6.9c2.198-3.365,2.686-7.265,1.639-11.129   c-1.041-3.84-3.037-7.425-5.112-10.811c-0.969-1.582-2.084-3.32-3.733-4.295c-1.995-1.18-4.219-1.199-6.452-0.801   c-6.217,1.106-12.522,2.466-18.864,2.86c-0.028,0.037-0.069,0.066-0.122,0.068c-0.917,0.041-1.833,0.051-2.749,0.04   c-0.916,0.011-1.832,0.001-2.749-0.04c-0.053-0.002-0.093-0.031-0.122-0.068c-6.342-0.394-12.646-1.753-18.864-2.86   c-2.234-0.398-4.457-0.378-6.452,0.801c-1.649,0.975-2.764,2.713-3.733,4.295c-2.075,3.386-4.071,6.971-5.112,10.811   c-1.047,3.864-0.559,7.763,1.639,11.129c1.985,3.04,5.16,5.215,8.334,6.9c3.754,1.994,8.33,3.19,12.278,1.01   c3.74-2.065,5.236-6.752,6.524-10.492c0.051-0.149,0.275-0.09,0.239,0.065c-0.913,3.988-2.012,7.973-5.368,10.66   c-3.036,2.431-7.234,2.264-10.753,1.127c-0.402-0.13-0.804-0.273-1.206-0.426c0.064,0.105,0.129,0.211,0.203,0.319   c0.484,0.704,1.03,1.388,1.678,1.951c1.485,1.292,3.026,2.176,4.899,2.746c0.097,0.03,0.077,0.171-0.024,0.174   c-1.885,0.07-3.936-0.547-5.378-1.775c-1.015-0.864-2.662-2.453-2.697-3.961c-1.188-0.531-2.342-1.178-3.449-1.898   c0.106,0.935,0.226,1.915,0.393,2.89C15.733,67.398,17.526,70.511,20.909,71.322z M38.72,65.547   c-1.886,1.143-2.298-1.509-1.953-2.785c0.815-3.018,1.567-6.16,3.016-8.951c0.024-0.047,0.101-0.025,0.099,0.027   c-0.072,1.581-0.375,3.158-0.717,4.701c-0.19,0.859-2.04,6.095-0.527,6.382C38.942,64.978,38.957,65.403,38.72,65.547z    M49.603,47.807c0.083,0.192-0.127,0.374-0.294,0.227c-1.677-1.477-4.065-2.741-6.364-2.001c-2.179,0.701-3.347,2.284-4.382,4.208   c-0.029,0.055-0.105,0.025-0.109-0.03C38.043,44.342,47.362,42.634,49.603,47.807z M51.314,65.876   c-3.684-0.02-7.344-0.022-10.995-0.556c-0.237-0.035-0.143-0.355,0.052-0.381c3.047-0.395,6.095-0.415,9.156-0.388   c-1.252-0.873-2.134-2.51-3.505-3.178c-2.447-1.193-4.685,0.528-6.87,1.484c-0.073,0.032-0.172-0.038-0.12-0.12   c1.092-1.706,3.804-3.248,5.887-2.874c1.387,0.25,2.517,1.001,3.502,1.993c0.658,0.662,1.448,1.296,2.093,2.006   c-0.391-3.419-1.13-6.807-2.296-10.047c-0.508-1.412-1.447-5.401-3.538-5.232c-1.939,0.157-3.038,1.929-4.042,3.393   c-0.204,0.297-0.757,0.119-0.616-0.26c0.631-1.7,1.531-3.722,3.495-4.216c1.873-0.471,3.447,0.286,4.322,2.023   c2.437,4.836,3.662,10.334,4.13,15.7C51.998,65.576,51.646,65.877,51.314,65.876z M35.714,49.814   c-1.661,3.423-2.474,7.672-5.66,10.116c-7.169,5.498-15.354-2.217-19.802-7.497c-1.104-1.311-1.804-2.736-1.981-4.443   c-0.226-2.177,1.061-4.427,1.924-6.335c0.965-2.134,1.93-4.267,2.896-6.401c0.795-1.758,1.654-3.465,3.159-4.722   c2.95-2.463,7.288-1.144,10.623-0.456c5.049,1.041,10.181,1.635,15.328,1.874c0.625,0.029,1.252,0.037,1.879,0.045   c0.627-0.008,1.254-0.016,1.879-0.045c5.147-0.239,10.279-0.833,15.328-1.874c3.334-0.687,7.672-2.006,10.623,0.456   c1.505,1.256,2.364,2.964,3.159,4.722c0.965,2.134,1.93,4.268,2.896,6.401c0.863,1.909,2.15,4.159,1.924,6.335   c-0.177,1.708-0.877,3.133-1.981,4.443c-4.448,5.279-12.633,12.995-19.802,7.497c-3.186-2.444-3.999-6.694-5.66-10.116   c-1.018-2.098-2.381-4.05-4.566-5.052c-1.157-0.531-2.477-0.864-3.799-0.964c-1.322,0.1-2.642,0.433-3.799,0.964   C38.095,45.764,36.732,47.716,35.714,49.814z"></path><polygon fill="none" points="80.736,9.471 80.736,9.471 80.736,9.471  "></polygon><path fill="none" d="M44.079,42.965c2.28-0.161,4.555,0.547,6.381,2.129c2.337,2.025,3.318,4.786,4.431,7.518   c3.648,2.422,7.249,4.961,10.721,7.651c0.507-0.109,1.007-0.256,1.495-0.446c3.832-1.487,7.002-4.779,9.608-7.873   c0.19-0.225,0.362-0.45,0.524-0.676c-8.284-4.718-16.789-8.991-25.708-12.505c-6.373-2.511-12.888-4.68-19.49-6.547   c-1.245-0.183-2.488-0.387-3.726-0.611c-2.224-0.403-4.423-1.016-6.679-1.22c-2.093-0.189-3.961,0.328-5.405,1.869   c8.263,3.088,16.3,6.965,23.991,11.314C41.45,43.079,42.762,42.872,44.079,42.965z"></path><path fill="none" d="M77.623,50.693c1.091-1.8,1.281-3.672,0.386-5.89c-0.927-2.298-2.017-4.537-3.038-6.795   c-0.839-1.855-1.563-4.113-2.946-5.653c-1.456-1.622-3.362-2.164-5.502-1.97c-2.256,0.204-4.454,0.817-6.679,1.22   c-2.222,0.402-4.455,0.748-6.699,1.002c-1.726,0.195-3.457,0.355-5.191,0.467c-1.277,0.223-2.576,0.231-3.874,0.185   c-1.298,0.045-2.597,0.037-3.874-0.185c-1.532-0.098-3.061-0.24-4.587-0.405c5.659,1.655,11.241,3.586,16.733,5.788   C61.006,41.926,69.538,45.955,77.623,50.693z"></path><path fill="none" d="M55.469,53.979c0.191,0.431,0.392,0.858,0.609,1.278c1.009,1.952,2.402,4.017,4.595,4.753   c1.194,0.401,2.445,0.534,3.682,0.434c-0.946-0.74-1.897-1.474-2.865-2.19C59.51,56.789,57.498,55.371,55.469,53.979z"></path><path fill="none" d="M36.581,19.924c1.263,1.049,3.259,0.588,3.555-1.15c0.284-1.671-1.374-3.039-2.98-2.38   c-0.261,0.107-0.488,0.261-0.683,0.449c-0.211,0.266-0.384,0.558-0.463,0.924C35.842,18.541,35.931,19.383,36.581,19.924z"></path><path fill="none" d="M50.491,25.266c1.466,0.753,3.898,0.382,4.358-1.475c0.388-1.571-0.494-3.872-2.402-3.884   c-0.149-0.001-0.294,0.011-0.436,0.028c0.009,0.082-0.037,0.169-0.14,0.171C49.277,20.15,48.059,24.017,50.491,25.266z"></path><path fill="none" d="M49.274,11.09c0.809,0.114,1.826-0.668,1.547-1.551C50.57,8.744,49.515,8,48.763,8.731   c-0.05,0.049-0.089,0.103-0.13,0.157c0.038,0.066,0.017,0.17-0.048,0.214c-0.052,0.035-0.095,0.068-0.139,0.101   c-0.191,0.469-0.122,1.021,0.102,1.497C48.731,10.9,48.969,11.047,49.274,11.09z"></path><path fill="none" d="M15.874,32.678c-1.213,1.523-1.903,3.598-2.687,5.33c-1.021,2.257-2.111,4.497-3.038,6.795   c-1.104,2.735-0.558,4.944,1.293,7.142c2.607,3.094,5.776,6.385,9.608,7.873c2.065,0.802,4.337,0.896,6.435,0.192   c2.193-0.736,3.586-2.8,4.595-4.753c1.804-3.491,2.516-7.476,5.618-10.163c0.514-0.445,1.066-0.813,1.641-1.12   C31.726,39.769,23.882,36.094,15.874,32.678z"></path><path fill="none" d="M82.573,21.189c0.653-0.286,1.241-0.71,1.713-1.288c0.175-0.214,0.274-0.369,0.387-0.489   c-1.101-2.517-2.291-5.004-3.271-7.562c-0.576,1.789-2.981,2.656-4.59,2.695c1.138,2.225,2.176,4.531,3.127,6.889   c0.141,0.007,0.304,0.036,0.554,0.039C81.193,21.481,81.911,21.479,82.573,21.189z"></path><path fill="none" d="M79.33,10.129c-1.061,0.027-2.127,0.403-2.855,1.299c-0.262,0.323-0.456,0.685-0.646,1.047   c0.004,0.195,0.073,0.402,0.196,0.617c0.04,0.042,0.077,0.09,0.11,0.15c0.015,0.027,0.028,0.055,0.043,0.083   c0.035,0.047,0.066,0.094,0.106,0.142c0.3,0.053,0.6,0.064,0.902,0.033c0.615-0.075,1.254-0.236,1.798-0.576   c0.509-0.319,1.17-0.73,1.449-1.322C81.012,10.374,80.013,10.112,79.33,10.129z"></path><path fill="none" d="M45.087,70.083c0.757-0.082,1.508-0.264,2.303-0.457c0.262-0.064,0.526-0.128,0.792-0.188   c-0.16-0.027-0.306-0.06-0.469-0.086c-1.109-0.178-2.259-0.283-3.419-0.313c-0.985,0.026-1.987,0.12-2.967,0.261   c0.492,0.095,0.979,0.21,1.458,0.326C43.579,69.819,44.33,70.001,45.087,70.083z"></path><path fill="none" d="M53.519,72.031c-1.891-2.061-4.85-0.507-7.505-0.354c2.105,0.197,4.271,0.988,5.208,2.901   c0.723,1.477,1.045,3.865-0.056,5.237c0.773-0.411,1.5-0.909,2.142-1.588C54.946,76.493,55.163,73.823,53.519,72.031z"></path><path fill="none" d="M69.954,85.894c2.947-1.733,5.862-3.532,8.784-5.314c2.825-1.723,5.791-3.304,8.489-5.263   c2.8-2.033,4.584-4.716,5.402-8.308c0.616-2.705,0.431-5.433,0.631-8.152c-0.617-7.798-1.43-15.569-3.262-23.167   c-1.072-4.446-2.389-8.818-3.999-13.065c-0.262-0.691-0.543-1.376-0.831-2.059c-0.54,0.834-1.624,1.504-2.314,1.74   c-0.569,0.195-1.646,0.434-2.468,0.253c2.252,5.809,3.957,11.921,5.156,17.987c0.912,4.616,1.632,9.34,1.884,14.061   c0.233,4.373,0.015,9.103-2.043,12.989c-2,3.777-5.205,5.832-8.727,7.614c-4.276,2.163-8.554,4.324-12.833,6.48   c-3.299,1.662-7.554,3.949-11.22,2.27c-2.268-1.039-4.058-3.159-4.545-5.739c-0.056-0.277-0.106-0.556-0.182-0.823   c-0.078-0.271-0.163-0.541-0.249-0.81c-0.77-1.182-1.779-2.062-3.492-1.364c-1.696,0.69-2.087,2.3-2.334,3.918   c0.284,5.71,4.622,10.417,9.756,11.512C58.081,92.044,64.302,89.218,69.954,85.894z"></path><path fill="none" d="M43.678,71.685c0.087-0.009,0.178-0.014,0.267-0.021c-2.598-0.22-5.45-1.637-7.29,0.368   c-1.645,1.792-1.428,4.461,0.211,6.196c0.686,0.726,1.469,1.245,2.303,1.671c-0.883-0.912-1.308-2.275-0.977-3.601   C38.832,73.728,41.044,71.95,43.678,71.685z"></path><path fill="none" d="M41.453,76.431c0.48-1.34,1.507-2.373,3.271-2.492c1.927-0.13,4.787,1.562,4.277,3.744   c0.008,0.095,0.014,0.19,0.014,0.286c0.23,0.725,0.542,1.39,0.919,1.986c0.526-1.622,1.485-3.105,0.344-4.825   c-1.164-1.753-3.288-2.523-5.346-2.457c-1.927,0.062-4.128,0.693-5.13,2.516c-1.102,2.004-0.502,4.054,1.277,5.328   c-0.131-1.297-0.046-2.629,0.304-3.952C41.397,76.508,41.423,76.466,41.453,76.431z"></path><path d="M38.563,50.241c1.035-1.924,2.204-3.506,4.382-4.208c2.299-0.74,4.687,0.524,6.364,2.001   c0.167,0.147,0.377-0.035,0.294-0.227c-2.242-5.173-11.56-3.466-11.149,2.404C38.458,50.266,38.534,50.296,38.563,50.241z"></path><path d="M40.28,44.762c1.157-0.531,2.477-0.864,3.799-0.964c1.322,0.1,2.642,0.433,3.799,0.964   c2.185,1.003,3.548,2.955,4.566,5.052c1.661,3.423,2.474,7.672,5.66,10.116c7.169,5.498,15.354-2.217,19.802-7.497   c1.104-1.311,1.804-2.736,1.981-4.443c0.226-2.177-1.061-4.427-1.924-6.335c-0.965-2.134-1.93-4.267-2.896-6.401   c-0.795-1.758-1.654-3.465-3.159-4.722c-2.95-2.463-7.288-1.144-10.623-0.456c-5.049,1.041-10.181,1.635-15.328,1.874   c-0.625,0.029-1.252,0.037-1.879,0.045c-0.627-0.008-1.254-0.016-1.879-0.045c-5.147-0.239-10.279-0.833-15.328-1.874   c-3.334-0.687-7.672-2.006-10.623,0.456c-1.505,1.256-2.364,2.964-3.159,4.722c-0.965,2.134-1.93,4.268-2.896,6.401   c-0.863,1.909-2.15,4.159-1.924,6.335c0.177,1.708,0.877,3.133,1.981,4.443c4.448,5.279,12.633,12.995,19.802,7.497   c3.186-2.444,3.999-6.694,5.66-10.116C36.732,47.716,38.095,45.764,40.28,44.762z M60.672,60.009   c-2.193-0.736-3.586-2.8-4.595-4.753c-0.217-0.42-0.417-0.847-0.609-1.278c2.03,1.392,4.041,2.811,6.02,4.275   c0.968,0.716,1.919,1.449,2.865,2.19C63.117,60.543,61.866,60.41,60.672,60.009z M40.205,33.074   c1.277,0.223,2.576,0.231,3.874,0.185c1.298,0.045,2.597,0.037,3.874-0.185c1.734-0.111,3.465-0.271,5.191-0.467   c2.244-0.254,4.477-0.6,6.699-1.002c2.224-0.403,4.423-1.016,6.679-1.22c2.14-0.194,4.046,0.348,5.502,1.97   c1.383,1.541,2.107,3.798,2.946,5.653c1.021,2.257,2.111,4.497,3.038,6.795c0.895,2.218,0.705,4.09-0.386,5.89   c-8.085-4.738-16.617-8.766-25.273-12.237c-5.492-2.202-11.074-4.132-16.733-5.788C37.144,32.834,38.673,32.975,40.205,33.074z    M21.636,30.384c2.255,0.204,4.454,0.817,6.679,1.22c1.238,0.224,2.481,0.428,3.726,0.611c6.602,1.867,13.117,4.036,19.49,6.547   c8.919,3.514,17.424,7.787,25.708,12.505c-0.162,0.226-0.334,0.451-0.524,0.676c-2.606,3.094-5.776,6.385-9.608,7.873   c-0.488,0.19-0.989,0.336-1.495,0.446c-3.472-2.69-7.073-5.229-10.721-7.651c-1.113-2.732-2.094-5.493-4.431-7.518   c-1.826-1.582-4.101-2.29-6.381-2.129c-1.317-0.093-2.629,0.114-3.857,0.601c-7.691-4.348-15.728-8.226-23.991-11.314   C17.674,30.712,19.543,30.195,21.636,30.384z M32.081,55.257c-1.009,1.952-2.402,4.017-4.595,4.753   c-2.098,0.704-4.37,0.609-6.435-0.192c-3.832-1.487-7.002-4.779-9.608-7.873c-1.851-2.198-2.397-4.406-1.293-7.142   c0.927-2.298,2.017-4.537,3.038-6.795c0.783-1.732,1.474-3.807,2.687-5.33c8.008,3.416,15.852,7.09,23.465,11.296   c-0.575,0.307-1.127,0.675-1.641,1.12C34.597,47.781,33.884,51.765,32.081,55.257z"></path><path d="M43.515,47.5c-1.964,0.494-2.864,2.516-3.495,4.216c-0.141,0.379,0.413,0.557,0.616,0.26   c1.004-1.464,2.103-3.236,4.042-3.393c2.091-0.169,3.03,3.82,3.538,5.232c1.166,3.24,1.905,6.628,2.296,10.047   c-0.646-0.71-1.435-1.344-2.093-2.006c-0.985-0.992-2.115-1.743-3.502-1.993c-2.083-0.375-4.794,1.168-5.887,2.874   c-0.052,0.081,0.046,0.152,0.12,0.12c2.185-0.956,4.423-2.677,6.87-1.484c1.371,0.668,2.253,2.305,3.505,3.178   c-3.061-0.027-6.109-0.007-9.156,0.388c-0.195,0.025-0.288,0.346-0.052,0.381c3.651,0.535,7.311,0.536,10.995,0.556   c0.333,0.002,0.684-0.299,0.653-0.653c-0.468-5.366-1.693-10.864-4.13-15.7C46.962,47.786,45.388,47.03,43.515,47.5z"></path><path d="M38.638,64.921c-1.513-0.287,0.336-5.523,0.527-6.382c0.342-1.543,0.645-3.12,0.717-4.701   c0.002-0.052-0.075-0.073-0.099-0.027c-1.449,2.79-2.201,5.932-3.016,8.951c-0.345,1.276,0.067,3.929,1.953,2.785   C38.957,65.403,38.942,64.978,38.638,64.921z"></path><path d="M35.565,20.94c1.957,1.998,5.095,0.922,5.968-1.506c0.966-2.686-1.616-5.272-4.296-4.719   c-2.029,0.418-3.217,2.486-2.638,4.262C34.689,19.697,35.011,20.374,35.565,20.94z M36.01,17.766   c0.079-0.365,0.252-0.658,0.463-0.924c0.195-0.188,0.422-0.342,0.683-0.449c1.606-0.659,3.265,0.709,2.98,2.38   c-0.295,1.738-2.292,2.199-3.555,1.15C35.931,19.383,35.842,18.541,36.01,17.766z"></path><path d="M49.514,12.335c1.757,0.07,2.949-1.783,2.565-3.366c-0.453-1.866-2.758-2.502-4.21-1.396   c-0.8,0.609-1.127,1.702-0.859,2.572C47.199,11.325,48.25,12.285,49.514,12.335z M48.446,9.203   c0.044-0.033,0.087-0.066,0.139-0.101c0.065-0.044,0.086-0.148,0.048-0.214c0.041-0.053,0.08-0.108,0.13-0.157   C49.515,8,50.57,8.744,50.821,9.539c0.279,0.883-0.738,1.665-1.547,1.551c-0.305-0.043-0.543-0.19-0.726-0.39   C48.324,10.224,48.254,9.672,48.446,9.203z"></path><path d="M48.07,21.524c-0.429,1.034-0.416,2.341,0.159,3.522c1.343,2.757,5.386,2.658,7.279,0.654   c2.027-2.146,0.828-5.945-1.692-7.072C51.602,17.638,48.316,19.064,48.07,21.524z M51.871,20.106   c0.103-0.002,0.149-0.089,0.14-0.171c0.142-0.017,0.287-0.029,0.436-0.028c1.908,0.012,2.79,2.313,2.402,3.884   c-0.459,1.857-2.891,2.228-4.358,1.475C48.059,24.017,49.277,20.15,51.871,20.106z"></path><path d="M94.834,59.21c0.027-0.876,0.024-1.666-0.008-2.413c-0.093-2.175-0.281-4.535-0.572-7.215   c-0.483-4.439-1.28-8.945-2.436-13.777c-1.076-4.497-2.493-9.111-4.212-13.716c-1.16-3.107-2.475-6.626-4.222-9.708   c-0.273-0.776-0.609-1.664-1.135-2.481C82,9.515,81.628,9.163,81.193,8.896c-0.032-0.021-0.066-0.041-0.099-0.06l-0.357,0.634l0,0   h0l0,0l0.311-0.661c-0.041-0.024-0.082-0.047-0.132-0.074l-0.079-0.038c-0.767-0.376-1.613-0.492-2.319-0.314   c-0.183,0.021-0.362,0.049-0.533,0.086c-1.404,0.303-3.197,1.699-3.707,3.445c-0.253,0.46-0.313,0.951-0.175,1.427   c0.075,0.261,0.183,0.506,0.321,0.73c0.014,0.04,0.031,0.08,0.049,0.119c4.001,8.613,6.674,16.028,8.412,23.337   c0.923,3.88,1.646,8,2.148,12.244c0.474,4.006,0.902,8.647-0.026,13.023c-0.804,3.79-2.891,6.784-6.203,8.9   c-2.354,1.504-4.944,2.747-7.449,3.949c-1.02,0.49-2.075,0.996-3.098,1.512c-0.857,0.432-1.728,0.897-2.571,1.347   c-2.784,1.486-5.664,3.023-8.627,3.729c-1.755,0.419-3.447,0.11-4.804-0.853c2.824-1.389,5.033-4.234,4.296-7.618   c-0.186-0.853-0.518-1.6-0.959-2.242c0.313,0.129,0.627,0.256,0.94,0.387c1.561,0.652,3.175,1.326,4.836,1.739   c1.331,0.331,2.601,0.499,3.777,0.499c2.597,0,4.872-0.813,6.76-2.417c2.537-2.155,3.338-5.735,3.806-9.31   c0.068-0.141,0.095-0.301,0.073-0.465c-0.003-0.022-0.005-0.044-0.006-0.066l0.046-0.384c0.057-0.199,0.163-0.414,0.332-0.674   c0.055-0.084,0.166-0.181,0.284-0.283c0.158-0.136,0.348-0.301,0.505-0.523c2.762-2.253,6.114-6.035,6.62-11.37   c0.427-4.501-1.444-8.785-3.332-12.381l-0.411-0.789c-1.594-3.068-3.402-6.545-6.43-8.598c-1.319-0.894-2.891-1.329-4.805-1.329   c-1.891,0-3.867,0.431-5.61,0.812c-0.585,0.128-1.155,0.252-1.703,0.357c-4.512,0.862-9.435,1.54-15.051,2.074   c-0.638,0.061-1.274,0.132-1.909,0.207c-0.635-0.075-1.27-0.147-1.909-0.207c-5.616-0.533-10.54-1.212-15.051-2.074   c-0.548-0.105-1.118-0.229-1.703-0.357c-1.743-0.381-3.719-0.812-5.61-0.812c-1.914,0-3.486,0.435-4.805,1.329   c-3.029,2.054-4.836,5.531-6.431,8.599l-0.411,0.788c-1.887,3.596-3.758,7.88-3.331,12.381c0.434,4.583,3.152,8.896,7.662,12.176   c0.424,3.778,1.011,8.362,3.997,10.898c1.888,1.604,4.163,2.417,6.76,2.417h0c1.176,0,2.446-0.168,3.776-0.499   c1.661-0.413,3.275-1.087,4.836-1.739c0.508-0.212,1.014-0.424,1.522-0.626c0.544-0.217,1.096-0.418,1.664-0.604   c-0.811,0.783-1.382,1.829-1.655,3.085c-0.388,1.78,0.016,3.535,1.167,5.076c1.346,1.801,3.545,3.067,5.838,3.388   c0.943,3.964,3.814,7.546,7.435,9.224c2.176,1.009,4.543,1.52,7.034,1.52h0c3.877,0,8.071-1.196,12.82-3.655   c2.604-1.349,5.144-2.93,7.601-4.459c0.859-0.534,1.718-1.069,2.579-1.594c0.966-0.589,1.941-1.168,2.917-1.747   c2.392-1.421,4.866-2.89,7.207-4.509c2.813-1.947,4.701-4.52,5.772-7.865C94.914,66.27,95.227,62.561,94.834,59.21z M14.201,60.94   c1.107,0.72,2.261,1.367,3.449,1.898c0.034,1.508,1.682,3.096,2.697,3.961c1.442,1.228,3.493,1.845,5.378,1.775   c0.1-0.004,0.121-0.145,0.024-0.174c-1.873-0.57-3.414-1.455-4.899-2.746c-0.648-0.564-1.194-1.247-1.678-1.951   c-0.074-0.107-0.139-0.214-0.203-0.319c0.401,0.153,0.803,0.296,1.206,0.426c3.519,1.137,7.717,1.304,10.753-1.127   c3.356-2.687,4.455-6.672,5.368-10.66c0.036-0.155-0.188-0.214-0.239-0.065c-1.288,3.74-2.783,8.426-6.524,10.492   c-3.947,2.18-8.524,0.984-12.278-1.01c-3.174-1.686-6.348-3.861-8.334-6.9c-2.198-3.365-2.686-7.265-1.639-11.129   c1.041-3.84,3.037-7.425,5.112-10.811c0.969-1.582,2.084-3.32,3.733-4.295c1.995-1.18,4.219-1.199,6.452-0.801   c6.217,1.106,12.522,2.466,18.864,2.86c0.028,0.037,0.069,0.066,0.122,0.068c0.917,0.041,1.833,0.051,2.749,0.04   c0.916,0.011,1.832,0.001,2.749-0.04c0.053-0.002,0.094-0.031,0.122-0.068c6.342-0.394,12.646-1.753,18.864-2.86   c2.234-0.398,4.457-0.378,6.452,0.801c1.649,0.975,2.763,2.713,3.733,4.295c2.075,3.386,4.071,6.971,5.112,10.811   c1.047,3.864,0.559,7.763-1.639,11.129c-1.985,3.04-5.16,5.215-8.334,6.9c-3.754,1.994-8.33,3.19-12.278,1.01   c-3.74-2.065-5.236-6.752-6.524-10.492c-0.051-0.149-0.275-0.09-0.239,0.065c0.913,3.988,2.012,7.973,5.368,10.66   c3.036,2.431,7.234,2.264,10.753,1.127c1.052-0.34,2.104-0.76,3.134-1.253c-0.127,0.286-0.242,0.584-0.399,0.897   c-0.426,0.849-1.059,1.646-1.708,2.329c-1.556,1.636-3.96,2.242-6.128,2.425c-0.051,0.004-0.059,0.069-0.012,0.087   c2.116,0.797,4.463,0.445,6.266-0.949c1.38-1.066,3.176-3.266,2.786-5.194c0.723-0.378,1.427-0.8,2.113-1.25   c-0.034,0.094-0.078,0.19-0.102,0.284c-0.008,0.031-0.014,0.063-0.018,0.095l-0.059,0.487c-0.004,0.034-0.006,0.068-0.005,0.102   c0,0.015,0.001,0.03,0.001,0.045c-0.015,0.044-0.025,0.091-0.031,0.139c-0.079,0.619-0.173,1.234-0.279,1.844   c-1.14,3.541-2.932,6.62-6.295,7.426c-4.202,1.007-8.107-0.89-12.074-2.343c-3.664-1.342-7.506-2.005-11.33-1.908   c-3.824-0.097-7.666,0.566-11.33,1.908c-3.967,1.452-7.872,3.35-12.074,2.343c-3.383-0.811-5.176-3.924-6.315-7.493   C14.427,62.854,14.307,61.875,14.201,60.94z M51.556,90.653c-5.134-1.095-9.471-5.802-9.756-11.512   c0.247-1.618,0.639-3.228,2.334-3.918c1.712-0.697,2.721,0.183,3.492,1.364c0.086,0.269,0.171,0.539,0.249,0.81   c0.076,0.267,0.126,0.546,0.182,0.823c0.487,2.58,2.278,4.7,4.545,5.739c3.666,1.68,7.921-0.607,11.22-2.27   c4.279-2.157,8.557-4.317,12.833-6.48c3.522-1.782,6.727-3.837,8.727-7.614c2.057-3.886,2.276-8.616,2.043-12.989   c-0.252-4.722-0.972-9.445-1.884-14.061c-1.199-6.067-2.904-12.179-5.156-17.987c0.822,0.181,1.899-0.057,2.468-0.253   c0.69-0.237,1.774-0.906,2.314-1.74c0.288,0.683,0.569,1.368,0.831,2.059c1.61,4.247,2.927,8.619,3.999,13.065   c1.832,7.599,2.645,15.369,3.262,23.167c-0.2,2.72-0.015,5.447-0.631,8.152c-0.818,3.592-2.602,6.275-5.402,8.308   c-2.698,1.959-5.663,3.54-8.489,5.263c-2.922,1.782-5.838,3.581-8.784,5.314C64.302,89.218,58.081,92.044,51.556,90.653z    M41.077,80.518c-1.779-1.274-2.379-3.324-1.277-5.328c1.003-1.823,3.203-2.454,5.13-2.516c2.058-0.067,4.183,0.703,5.346,2.457   c1.142,1.72,0.182,3.203-0.344,4.825c-0.377-0.596-0.689-1.261-0.919-1.986c0-0.096-0.006-0.191-0.014-0.286   c0.51-2.182-2.35-3.874-4.277-3.744c-1.765,0.119-2.792,1.152-3.271,2.492c-0.03,0.034-0.056,0.076-0.071,0.134   C41.031,77.889,40.946,79.221,41.077,80.518z M39.169,79.899c-0.834-0.426-1.617-0.945-2.303-1.671   c-1.639-1.735-1.856-4.404-0.211-6.196c1.841-2.005,4.692-0.588,7.29-0.368c-0.089,0.007-0.18,0.012-0.267,0.021   c-2.634,0.265-4.845,2.043-5.486,4.614C37.861,77.624,38.286,78.987,39.169,79.899z M51.166,79.816   c1.101-1.373,0.779-3.76,0.056-5.237c-0.937-1.912-3.103-2.704-5.208-2.901c2.655-0.154,5.613-1.707,7.505,0.354   c1.645,1.792,1.428,4.461-0.211,6.196C52.666,78.907,51.939,79.405,51.166,79.816z M79.939,21.434   c-0.95-2.358-1.989-4.664-3.127-6.889c1.609-0.039,4.014-0.906,4.59-2.695c0.98,2.558,2.17,5.046,3.271,7.562   c-0.113,0.12-0.212,0.275-0.387,0.489c-0.471,0.577-1.059,1.001-1.713,1.288c-0.662,0.29-1.38,0.292-2.08,0.284   C80.243,21.469,80.08,21.441,79.939,21.434z M80.432,11.602c-0.28,0.592-0.94,1.002-1.449,1.322   c-0.544,0.341-1.183,0.501-1.798,0.576c-0.301,0.031-0.602,0.02-0.902-0.033c-0.04-0.048-0.071-0.095-0.106-0.142   c-0.015-0.027-0.028-0.055-0.043-0.083c-0.033-0.061-0.07-0.108-0.11-0.15c-0.123-0.216-0.193-0.422-0.196-0.617   c0.19-0.362,0.384-0.724,0.646-1.047c0.729-0.896,1.795-1.272,2.855-1.299C80.013,10.112,81.012,10.374,80.432,11.602z    M44.294,69.038c1.16,0.03,2.31,0.135,3.419,0.313c0.163,0.026,0.309,0.059,0.469,0.086c-0.266,0.061-0.53,0.125-0.792,0.188   c-0.794,0.193-1.546,0.376-2.303,0.457c-0.757-0.082-1.508-0.264-2.303-0.457c-0.478-0.116-0.965-0.231-1.458-0.326   C42.307,69.159,43.309,69.064,44.294,69.038z"></path></g></svg></g><path fill="white" fill-rule="nonzero" d="M4.24 32.68L0 32.68L6.88 0.28L11.24 0.28L18.16 32.68L13.88 32.68L12.40 24.52L5.80 24.52L4.24 32.68ZM9.08 6.68L6.40 21.28L11.80 21.28L9.08 6.68ZM29 33.08L29 33.08Q25.96 33.08 24.14 31.78Q22.32 30.48 21.50 28Q20.68 25.52 20.68 22.04L20.68 22.04L20.68 11.20Q20.68 7.64 21.42 5.14Q22.16 2.64 24.06 1.32Q25.96 0 29.36 0L29.36 0Q32.40 0 34.26 1.02Q36.12 2.04 36.96 4.14Q37.80 6.24 37.80 9.44L37.80 9.44L37.80 10.64L33.56 10.64L33.56 9.64Q33.56 7.52 33.28 6.18Q33 4.84 32.14 4.18Q31.28 3.52 29.44 3.52L29.44 3.52Q27.44 3.52 26.54 4.44Q25.64 5.36 25.42 6.94Q25.20 8.52 25.20 10.52L25.20 10.52L25.20 22.52Q25.20 24.84 25.54 26.40Q25.88 27.96 26.84 28.72Q27.80 29.48 29.56 29.48L29.56 29.48Q31.32 29.48 32.28 28.64Q33.24 27.80 33.60 26.16Q33.96 24.52 33.96 22.08L33.96 22.08L33.96 19.84L29.84 19.84L29.84 16.64L38.04 16.64L38.04 32.68L35.20 32.68L34.76 28.96Q34.12 30.76 32.76 31.92Q31.40 33.08 29 33.08ZM51.04 33.04L51.04 33.04Q47.52 33.04 45.64 31.64Q43.76 30.24 43.08 27.70Q42.40 25.16 42.40 21.76L42.40 21.76L42.40 0.28L46.72 0.28L46.72 21.96Q46.72 24.04 47 25.76Q47.28 27.48 48.22 28.48Q49.16 29.48 51.04 29.48L51.04 29.48Q52.96 29.48 53.88 28.48Q54.80 27.48 55.08 25.76Q55.36 24.04 55.36 21.96L55.36 21.96L55.36 0.28L59.64 0.28L59.64 21.76Q59.64 25.16 58.96 27.70Q58.28 30.24 56.42 31.64Q54.56 33.04 51.04 33.04ZM66.88 32.68L62.64 32.68L69.52 0.28L73.88 0.28L80.80 32.68L76.52 32.68L75.04 24.52L68.44 24.52L66.88 32.68ZM71.72 6.68L69.04 21.28L74.44 21.28L71.72 6.68Z" transform="translate(12 12) scale(1.416)"></path><path fill="white" fill-rule="nonzero" d="M3.68 32.40L0 32.40L0.60 0L5.04 0L10.76 26.28L16.52 0L20.92 0L21.52 32.40L17.88 32.40L17.52 8.88L12.04 32.40L9.48 32.40L4.04 8.88L3.68 32.40ZM28.96 32.40L24.72 32.40L31.60 0L35.96 0L42.88 32.40L38.60 32.40L37.12 24.24L30.52 24.24L28.96 32.40ZM33.80 6.40L31.12 21L36.52 21L33.80 6.40ZM50.68 32.40L46.16 32.40L46.16 0L52.68 0Q55.92 0 58.04 0.86Q60.16 1.72 61.18 3.62Q62.20 5.52 62.20 8.60L62.20 8.60Q62.20 10.48 61.80 12.02Q61.40 13.56 60.52 14.62Q59.64 15.68 58.20 16.16L58.20 16.16L62.80 32.40L58.44 32.40L54.20 17.20L50.68 17.20L50.68 32.40ZM50.68 3.24L50.68 13.96L52.40 13.96Q54.32 13.96 55.52 13.48Q56.72 13.00 57.28 11.84Q57.84 10.68 57.84 8.60L57.84 8.60Q57.84 5.76 56.80 4.50Q55.76 3.24 52.68 3.24L52.68 3.24L50.68 3.24ZM71.60 32.40L67.16 32.40L67.16 0L71.60 0L71.60 32.40ZM80.68 32.40L76.84 32.40L76.84 0L79.92 0L89.12 21.52L89.12 0L92.88 0L92.88 32.40L90 32.40L80.68 10.28L80.68 32.40ZM100.44 32.40L96.20 32.40L103.08 0L107.44 0L114.36 32.40L110.08 32.40L108.60 24.24L102.00 24.24L100.44 32.40ZM105.28 6.40L102.60 21L108.00 21L105.28 6.40Z" transform="translate(12 66.82) scale(1)"></path></svg>